<svg width="131" height="27" viewBox="0 0 131 27" fill="none" xmlns="http://www.w3.org/2000/svg">
<path d="M0 26.4V26L0.799999 25.68C1.3333 25.4933 1.68 25.24 1.84 24.92C2.0267 24.6 2.12 24.1733 2.12 23.64V2.76C2.12 2.2267 2.04 1.8 1.88 1.48C1.72 1.16 1.36 0.906699 0.799999 0.719999L0 0.4V0H10.28V0.4L9.48 0.719999C8.9467 0.906699 8.5867 1.16 8.4 1.48C8.24 1.8 8.16 2.2267 8.16 2.76V23.64C8.16 24.1733 8.24 24.6 8.4 24.92C8.5867 25.2133 8.9467 25.4667 9.48 25.68L10.28 26V26.4H0ZM11.9513 26.4V26L12.5113 25.84C13.4446 25.5733 13.9113 24.92 13.9113 23.88V11.36C13.9113 10.7733 13.8179 10.3467 13.6313 10.08C13.4446 9.7867 13.0846 9.5867 12.5513 9.48L11.9513 9.32V8.92L18.7913 6.6L19.1913 7L19.5113 9.4C20.4446 8.5733 21.4979 7.8933 22.6713 7.36C23.8446 6.8267 25.0046 6.56 26.1513 6.56C27.9113 6.56 29.2579 7.04 30.1913 8C31.1513 8.96 31.6313 10.4267 31.6313 12.4V23.92C31.6313 24.96 32.1379 25.6133 33.1513 25.88L33.5113 26V26.4H24.0713V26L24.5913 25.84C25.5246 25.5467 25.9913 24.8933 25.9913 23.88V11.12C25.9913 9.4133 25.1379 8.56 23.4313 8.56C22.2579 8.56 20.9779 9.1467 19.5913 10.32V23.92C19.5913 24.96 20.0579 25.6133 20.9913 25.88L21.3513 26V26.4H11.9513ZM42.4809 27C40.7743 27 39.4409 26.5733 38.4809 25.72C37.5476 24.8667 37.0809 23.5067 37.0809 21.64V7.96H34.3209V7.56L35.2809 7.4C36.1076 7.2133 36.8143 6.9467 37.4009 6.6C38.0143 6.2533 38.6143 5.7867 39.2009 5.2L42.4809 1.56H42.8809L42.7609 7.16H47.2409V7.96H42.7209V22.36C42.7209 23.2933 42.9209 24 43.3209 24.48C43.7476 24.96 44.2809 25.2 44.9209 25.2C45.4809 25.2 45.9743 25.0667 46.4009 24.8C46.8276 24.5067 47.2543 24.12 47.6809 23.64L48.0809 24.04C47.5476 24.9467 46.8143 25.6667 45.8809 26.2C44.9476 26.7333 43.8143 27 42.4809 27ZM59.257 6.56C60.99 6.56 62.47 6.92 63.697 7.64C64.924 8.3333 65.857 9.2933 66.497 10.52C67.164 11.72 67.497 13.0933 67.497 14.64C67.497 14.9333 67.484 15.24 67.457 15.56C67.43 15.8533 67.377 16.12 67.297 16.36H55.377C55.404 19.24 55.91 21.32 56.897 22.6C57.91 23.8533 59.404 24.48 61.377 24.48C62.71 24.48 63.79 24.2667 64.617 23.84C65.444 23.4133 66.217 22.7867 66.937 21.96L67.337 22.32C66.51 23.7867 65.404 24.9333 64.017 25.76C62.657 26.5867 61.017 27 59.097 27C57.204 27 55.524 26.6 54.0569 25.8C52.5902 24.9733 51.4435 23.8 50.6169 22.28C49.7902 20.76 49.3769 18.9467 49.3769 16.84C49.3769 14.6533 49.8569 12.8 50.8169 11.28C51.7769 9.7333 53.0035 8.56 54.4969 7.76C56.017 6.96 57.604 6.56 59.257 6.56ZM59.137 7.36C58.364 7.36 57.697 7.6 57.137 8.08C56.604 8.5333 56.177 9.36 55.857 10.56C55.564 11.7333 55.404 13.4 55.377 15.56H62.217C62.484 12.6533 62.377 10.56 61.897 9.28C61.417 8 60.497 7.36 59.137 7.36ZM69.49 26.4V26L70.09 25.84C70.624 25.68 70.984 25.44 71.17 25.12C71.384 24.8 71.49 24.3867 71.49 23.88V11.36C71.49 10.7733 71.384 10.3467 71.17 10.08C70.984 9.7867 70.624 9.5867 70.09 9.48L69.49 9.32V8.92L76.37 6.6L76.77 7L77.13 10.44V10.76C77.504 10.0133 77.984 9.3333 78.57 8.72C79.184 8.08 79.85 7.56 80.57 7.16C81.317 6.76 82.05 6.56 82.77 6.56C83.784 6.56 84.557 6.84 85.09 7.4C85.624 7.96 85.89 8.6667 85.89 9.52C85.89 10.4267 85.624 11.1333 85.09 11.64C84.584 12.12 83.97 12.36 83.25 12.36C82.13 12.36 81.144 11.8 80.29 10.68L80.21 10.6C79.944 10.2267 79.637 10.0267 79.29 10C78.944 9.9467 78.624 10.1067 78.33 10.48C78.064 10.72 77.837 11.0133 77.65 11.36C77.49 11.68 77.33 12.0533 77.17 12.48V23.64C77.17 24.7067 77.637 25.3733 78.57 25.64L79.85 26V26.4H69.49ZM87.147 26.4V26L87.707 25.84C88.64 25.5733 89.107 24.92 89.107 23.88V11.36C89.107 10.7733 89.013 10.3467 88.827 10.08C88.64 9.7867 88.28 9.5867 87.747 9.48L87.147 9.32V8.92L93.987 6.6L94.387 7L94.707 9.4C95.64 8.5733 96.693 7.8933 97.867 7.36C99.04 6.8267 100.2 6.56 101.347 6.56C103.107 6.56 104.453 7.04 105.387 8C106.347 8.96 106.827 10.4267 106.827 12.4V23.92C106.827 24.96 107.333 25.6133 108.347 25.88L108.707 26V26.4H99.267V26L99.787 25.84C100.72 25.5467 101.187 24.8933 101.187 23.88V11.12C101.187 9.4133 100.333 8.56 98.627 8.56C97.453 8.56 96.173 9.1467 94.787 10.32V23.92C94.787 24.96 95.253 25.6133 96.187 25.88L96.547 26V26.4H87.147ZM120.392 27C118.365 27 116.605 26.5867 115.112 25.76C113.618 24.9067 112.458 23.7067 111.632 22.16C110.832 20.6133 110.432 18.8 110.432 16.72C110.432 14.64 110.858 12.84 111.712 11.32C112.592 9.8 113.778 8.6267 115.272 7.8C116.792 6.9733 118.498 6.56 120.392 6.56C122.285 6.56 123.978 6.9733 125.472 7.8C126.965 8.6 128.138 9.76 128.992 11.28C129.872 12.8 130.312 14.6133 130.312 16.72C130.312 18.8267 129.898 20.6533 129.072 22.2C128.272 23.72 127.125 24.9067 125.632 25.76C124.165 26.5867 122.418 27 120.392 27ZM120.392 26.2C121.325 26.2 122.072 25.9333 122.632 25.4C123.192 24.8667 123.592 23.92 123.832 22.56C124.098 21.2 124.232 19.28 124.232 16.8C124.232 14.2933 124.098 12.36 123.832 11C123.592 9.64 123.192 8.6933 122.632 8.16C122.072 7.6267 121.325 7.36 120.392 7.36C119.458 7.36 118.698 7.6267 118.112 8.16C117.552 8.6933 117.138 9.64 116.872 11C116.632 12.36 116.512 14.2933 116.512 16.8C116.512 19.28 116.632 21.2 116.872 22.56C117.138 23.92 117.552 24.8667 118.112 25.4C118.698 25.9333 119.458 26.2 120.392 26.2Z" fill="#292F36"/>
</svg>
